<svg width="325" height="324" xmlns="http://www.w3.org/2000/svg" xmlns:xlink="http://www.w3.org/1999/xlink" overflow="hidden"><defs><clipPath id="clip0"><rect x="821" y="198" width="325" height="324"/></clipPath></defs><g clip-path="url(#clip0)" transform="translate(-821 -198)"><path d="M202.5 91.125C202.5 120.948 178.323 145.125 148.5 145.125 118.677 145.125 94.5 120.948 94.5 91.125 94.5 61.3016 118.677 37.125 148.5 37.125 178.323 37.125 202.5 61.3016 202.5 91.125Z" fill="#7F7F7F" transform="matrix(1.00309 0 0 1 821 198)"/><path d="M168.75 239.625C168.806 208.283 191.493 181.566 222.413 176.432 212.962 171.906 203.138 168.207 193.05 165.375 178.611 160.955 163.6 158.681 148.5 158.625 133.416 158.885 118.434 161.155 103.95 165.375 85.0746 170.883 67.2715 179.556 51.3 191.025 44.6411 196.24 40.6762 204.169 40.5 212.625L40.5 266.625 174.791 266.625C170.823 258.177 168.76 248.959 168.75 239.625Z" fill="#7F7F7F" transform="matrix(1.00309 0 0 1 821 198)"/><path d="M232.875 189C204.915 189 182.25 211.665 182.25 239.625 182.25 267.585 204.915 290.25 232.875 290.25 260.835 290.25 283.5 267.585 283.5 239.625 283.5 211.665 260.835 189 232.875 189ZM256.5 243 237.938 243 237.938 261.562 227.812 261.562 227.812 243 209.25 243 209.25 232.875 227.812 232.875 227.812 214.312 237.938 214.312 237.938 232.875 256.5 232.875Z" fill="#7F7F7F" transform="matrix(1.00309 0 0 1 821 198)"/></g></svg>