<svg width="324" height="325" xmlns="http://www.w3.org/2000/svg" xmlns:xlink="http://www.w3.org/1999/xlink" overflow="hidden"><defs><clipPath id="clip0"><rect x="448" y="167" width="324" height="325"/></clipPath></defs><g clip-path="url(#clip0)" transform="translate(-448 -167)"><path d="M249.413 166.387C255.487 191.025 230.175 215.325 205.2 205.2 184.275 197.775 176.175 173.475 190.688 152.55 223.425 109.012 199.462 40.5 145.125 16.875 169.762 63.45 131.962 106.312 110.363 124.2 88.7625 142.087 74.25 160.65 69.8625 171.45 47.925 224.775 80.6625 275.737 102.938 287.888 92.8125 264.938 83.3625 221.062 123.188 179.887 123.188 179.887 111.712 223.763 136.688 254.138 161.663 284.513 161.325 307.125 161.325 307.125 200.137 307.125 236.925 283.837 252.45 245.7 264.263 223.087 265.275 187.312 249.413 166.387" fill="#ED7D31" transform="matrix(1 0 0 1.00309 448 167)"/></g></svg>