<svg width="325" height="325" xmlns="http://www.w3.org/2000/svg" xmlns:xlink="http://www.w3.org/1999/xlink" overflow="hidden"><defs><clipPath id="clip0"><rect x="85" y="167" width="325" height="325"/></clipPath></defs><g clip-path="url(#clip0)" transform="translate(-85 -167)"><path d="M350.755 226.245 347.37 195.776 310.13 233.016 312.161 250.62 257.995 304.786C253.255 302.417 247.839 300.724 242.083 300.724 223.464 300.724 208.229 315.958 208.229 334.578 208.229 353.198 223.464 368.432 242.083 368.432 260.703 368.432 275.938 353.198 275.938 334.578 275.938 328.823 274.583 323.745 272.214 319.005L326.38 264.839 343.984 266.87 381.224 229.63 350.755 226.245Z" fill="#C00000"/><path d="M353.464 276.349 349.062 281.089 342.63 280.411 335.521 279.396C345 295.646 350.755 314.266 350.755 334.578 350.755 394.161 302.005 442.911 242.422 442.911 182.839 442.911 134.089 394.161 134.089 334.578 134.089 274.995 182.839 226.245 242.422 226.245 262.396 226.245 281.354 231.661 297.604 241.479L296.927 234.708 295.911 227.938 300.651 223.198 303.021 220.828C284.74 211.349 264.427 205.932 242.422 205.932 171.328 205.932 113.776 263.484 113.776 334.578 113.776 405.672 171.328 463.224 242.422 463.224 313.516 463.224 371.068 405.672 371.068 334.578 371.068 312.573 365.651 292.26 355.833 274.318L353.464 276.349Z" fill="#C00000"/><path d="M298.958 311.557C302.005 318.667 303.359 326.453 303.359 334.578 303.359 368.094 275.938 395.516 242.422 395.516 208.906 395.516 181.484 368.094 181.484 334.578 181.484 301.062 208.906 273.641 242.422 273.641 250.547 273.641 258.333 275.333 265.443 278.042L280.677 262.807C269.167 256.714 256.302 253.328 242.422 253.328 197.734 253.328 161.172 289.891 161.172 334.578 161.172 379.266 197.734 415.828 242.422 415.828 287.109 415.828 323.672 379.266 323.672 334.578 323.672 320.698 320.286 307.833 314.193 296.323L298.958 311.557Z" fill="#C00000"/></g></svg>